<svg width="15" height="32" viewBox="0 0 15 32" fill="none" xmlns="http://www.w3.org/2000/svg">
<g clip-path="url(#clip0_2469_2160)">
<path d="M13.1251 19.7496C12.858 19.7504 12.5942 19.8087 12.3515 19.9205C12.1089 20.0323 11.8931 20.1949 11.7189 20.3974L3.70748 16.3914C3.76435 16.1333 3.76435 15.8659 3.70748 15.6077L11.7189 11.6018C12.0179 11.9371 12.4287 12.152 12.8747 12.2064C13.3207 12.2608 13.7711 12.1509 14.1419 11.8972C14.5128 11.6436 14.7785 11.2636 14.8894 10.8282C15.0004 10.3929 14.949 9.93206 14.7449 9.53186C14.5407 9.13167 14.1978 8.81952 13.7803 8.6538C13.3627 8.48807 12.899 8.4801 12.476 8.63139C12.053 8.78267 11.6996 9.08285 11.4818 9.4758C11.264 9.86874 11.1968 10.3276 11.2928 10.7664L3.28139 14.7724C3.03115 14.4833 2.69854 14.2777 2.32812 14.183C1.9577 14.0883 1.5672 14.1091 1.20894 14.2426C0.850692 14.3762 0.54182 14.616 0.323733 14.93C0.105647 15.2441 -0.0112305 15.6172 -0.0112305 15.9996C-0.0112305 16.3819 0.105647 16.7551 0.323733 17.0691C0.54182 17.3831 0.850692 17.623 1.20894 17.7565C1.5672 17.89 1.9577 17.9108 2.32812 17.8162C2.69854 17.7215 3.03115 17.5158 3.28139 17.2268L11.2928 21.2327C11.2118 21.6119 11.2503 22.0068 11.403 22.3632C11.5557 22.7196 11.8152 23.0198 12.1456 23.2226C12.4761 23.4254 12.8613 23.5208 13.2482 23.4956C13.6351 23.4704 14.0047 23.3259 14.306 23.082C14.6074 22.838 14.8257 22.5067 14.931 22.1335C15.0362 21.7604 15.0232 21.3637 14.8937 20.9983C14.7642 20.6328 14.5246 20.3165 14.2079 20.0929C13.8911 19.8693 13.5129 19.7493 13.1251 19.7496ZM13.1251 9.43707C13.3106 9.43707 13.4918 9.49205 13.646 9.59507C13.8002 9.69808 13.9203 9.8445 13.9913 10.0158C14.0622 10.1871 14.0808 10.3756 14.0446 10.5575C14.0084 10.7393 13.9192 10.9064 13.788 11.0375C13.6569 11.1686 13.4899 11.2579 13.308 11.2941C13.1262 11.3302 12.9377 11.3117 12.7664 11.2407C12.5951 11.1698 12.4486 11.0496 12.3456 10.8954C12.2426 10.7412 12.1876 10.56 12.1876 10.3746C12.1876 10.1259 12.2864 9.88747 12.4622 9.71166C12.638 9.53584 12.8765 9.43707 13.1251 9.43707ZM1.87514 16.9371C1.68972 16.9371 1.50846 16.8821 1.35429 16.7791C1.20012 16.6761 1.07996 16.5296 1.009 16.3583C0.938042 16.187 0.919476 15.9985 0.95565 15.8167C0.991823 15.6348 1.08111 15.4678 1.21222 15.3367C1.34333 15.2055 1.51038 15.1163 1.69224 15.0801C1.8741 15.0439 2.0626 15.0625 2.2339 15.1334C2.40521 15.2044 2.55162 15.3246 2.65464 15.4787C2.75765 15.6329 2.81264 15.8142 2.81264 15.9996C2.81264 16.2482 2.71386 16.4867 2.53805 16.6625C2.36223 16.8383 2.12378 16.9371 1.87514 16.9371ZM13.1251 22.5621C12.9397 22.5621 12.7585 22.5071 12.6043 22.4041C12.4501 22.3011 12.33 22.1546 12.259 21.9833C12.188 21.812 12.1695 21.6235 12.2056 21.4417C12.2418 21.2598 12.3311 21.0928 12.4622 20.9617C12.5933 20.8305 12.7604 20.7413 12.9422 20.7051C13.1241 20.6689 13.3126 20.6875 13.4839 20.7584C13.6552 20.8294 13.8016 20.9496 13.9046 21.1037C14.0077 21.2579 14.0626 21.4392 14.0626 21.6246C14.0626 21.8732 13.9639 22.1117 13.788 22.2875C13.6122 22.4633 13.3738 22.5621 13.1251 22.5621Z" fill="white" stroke="white" stroke-width="0.46875"/>
</g>
<defs>
<clipPath id="clip0_2469_2160">
<rect width="15" height="32" fill="white"/>
</clipPath>
</defs>
</svg>
